# xmcd
#
# Track frame offsets:
#	150
#	10388
#	21601
#	32364
#	46164
#	56739
#	68814
#	82352
#	93227
#	105040
#	118803
#	129791
#	141529
#	153529
#	177305
#	190618
#	202544
#	215782
#	223432
#	236520
#	247695
#	260221
#	272034
#	283922
#	296110
#	309460
#
# Disc length: 4299 seconds
#
# Revision: 1
# Processed by: cddbd v1.5PL3 Copyright (c) Steve Scherf et al.
# Submitted via: audiograbber 1.82.02
#
DISCID=8a10c91a
DTITLE=Various Artist - Too Late To Be Good
DYEAR=1900
DGENRE=Blues
TTITLE0=James Quintet - Pa's In The Kitchen
TTITLE1=Eddie Gorman and Group - Telephone Blues
TTITLE2=Bachelors - Weekend Blues
TTITLE3=Magochords (Madeline Green and the) - I've Got A Right To Be Blue
TTITLE4=Drifters - And I Shook
TTITLE5=Beavers - Big Mouth Mama
TTITLE6=Bluesmen (Maggie Hathaway and Her) - Too Late To Be Good
TTITLE7=James Quintet - I'm Just A Fool
TTITLE8=Colemans - I Ain't Got Nobody
TTITLE9=Cats and The Fiddle - Blue Skies
TTITLE10=Musical Notes (Bill Johnson and His) - Pretty-Eyed Baby
TTITLE11=Five Breezes - Minute And Hour Blues
TTITLE12=Norfolk Jazz Quartet - Suntan Baby Brown
TTITLE13=Hamptones - Turkey Hop (Pts 1&2)
TTITLE14=Sy Oliver (bb Ray Charles Singers) - My Friend Told Me
TTITLE15=Gene Ammons and Group - Sweet Jennie Lou
TTITLE16=Delta Rhythm Boys - What Would It Take
TTITLE17=King Odum Four - Lover Come Back To Me
TTITLE18=Four Notes (Gene Smith and the) - I Didn't Mean To Be So Mean
TTITLE19=Three Dots and A Dash - Don't Cry Baby
TTITLE20=Robins - Around About Midnight
TTITLE21=Robins (Little Esther and the) - Mainliner
TTITLE22=Sultans - Blues At Dawn
TTITLE23=Orioles - Happy Go Lucky Local Blues
TTITLE24=Hollywood Four Flames - W-I-N-E
TTITLE25=Charles Brown (bb Johnny Moore's Three Blazers) - Gloria
EXTD=
EXTT0=
EXTT1=
EXTT2=
EXTT3=
EXTT4=
EXTT5=
EXTT6=
EXTT7=
EXTT8=
EXTT9=
EXTT10=
EXTT11=
EXTT12=
EXTT13=
EXTT14=
EXTT15=
EXTT16=
EXTT17=
EXTT18=
EXTT19=
EXTT20=
EXTT21=
EXTT22=
EXTT23=
EXTT24=
EXTT25=
PLAYORDER=
